<svg xmlns="http://www.w3.org/2000/svg" viewBox="0 0 410 404"><defs><linearGradient id="a" x1="6.247" x2="120.65" y1="33.829" y2="-65.813" gradientTransform="matrix(1 0 0 -1 0 502)" gradientUnits="userSpaceOnUse"><stop stop-color="#ffea83"/><stop offset=".083" stop-color="#ffdd35"/><stop offset=".32" stop-color="#ffa800"/><stop offset=".556" stop-color="#ff6f00"/><stop offset=".833" stop-color="#ff2f00"/><stop offset="1" stop-color="#ff0800"/></linearGradient><linearGradient id="b" x1="79.817" x2="241.09" y1="251.09" y2="120.65" gradientTransform="matrix(1 0 0 -1 0 502)" gradientUnits="userSpaceOnUse"><stop stop-color="#0077ff"/><stop offset=".161" stop-color="#006eff"/><stop offset=".453" stop-color="#0053ff"/><stop offset=".697" stop-color="#0041ff"/><stop offset=".83" stop-color="#003bff"/><stop offset="1" stop-color="#005bff"/></linearGradient></defs><path fill="url(#a)" d="M399.641 59.525 215.643 388.545c-4.522 8.055-15.915 8.061-20.444.01L10.494 59.534c-4.746-8.43 2.386-18.35 11.72-16.714L205.223 76.72a12 12 0 0 0 4.455 0l182.518-33.889c9.322-1.734 16.469 8.155 11.755 16.589Z"/><path fill="url(#b)" d="m286.392 144.739-80.388 162.5c-2.998 6.06-11.728 6.05-14.713-.017l-48.498-99.25a8 8 0 0 1 4.205-10.926l45.27-18.824a8 8 0 0 0 4.255-4.228l16.505-39.532c2.727-6.531 11.788-6.565 14.578-.055l16.078 38.989a8 8 0 0 0 4.315 4.352l46.044 19.192a8 8 0 0 1 4.305 10.94Z"/></svg>
